<?xml version="1.0" encoding="utf-8"?>
<!-- Generator: Adobe Illustrator 12.0.0, SVG Export Plug-In . SVG Version: 6.00 Build 51448)  -->
<!DOCTYPE svg PUBLIC "-//W3C//DTD SVG 1.1//EN" "http://www.w3.org/Graphics/SVG/1.1/DTD/svg11.dtd" [
	<!ENTITY ns_svg "http://www.w3.org/2000/svg">
	<!ENTITY ns_xlink "http://www.w3.org/1999/xlink">
]>
<svg  version="1.1" id="Layer_1" xmlns="&ns_svg;" xmlns:xlink="&ns_xlink;" width="569" height="127"
	 viewBox="-0.939 -0.764 569 127" overflow="visible" enable-background="new -0.939 -0.764 569 127" xml:space="preserve">
<rect x="0" y="6.812" fill="none" width="607.061" height="195.455"/>
<text transform="matrix(1 0 0 1 2.098083e-004 41.1794)" fill="#FFFFFF" font-family="'Arial-BoldMT'" font-size="48">Opening Doors Through </text>
<text transform="matrix(1 0 0 1 2.098083e-004 41.1794)" fill="none" stroke="#FFFFFF" font-family="'Arial-BoldMT'" font-size="48">Opening Doors Through </text>
<text transform="matrix(1 0 0 1 2.098083e-004 98.779)" fill="#FFFFFF" font-family="'Arial-BoldMT'" font-size="48">Literacy....</text>
<text transform="matrix(1 0 0 1 2.098083e-004 98.779)" fill="none" stroke="#FFFFFF" font-family="'Arial-BoldMT'" font-size="48">Literacy....</text>
<rect x="234.849" y="50.751" fill="none" width="362.121" height="148.485"/>
<text transform="matrix(1 0 0 1 234.8488 102.3024)" fill="#FFFFFF" stroke="#FFFFFF" font-family="'Arial-BoldMT'" font-size="72">|</text>
<rect x="272.727" y="62.873" fill="none" width="250" height="50"/>
<text transform="matrix(1 0 0 1 272.7273 75.7604)" fill="#FFFFFF" font-family="'Arial-BoldMT'" font-size="18"> A Short Story about </text>
<text transform="matrix(1 0 0 1 272.7273 75.7604)" fill="none" stroke="#FFFFFF" font-family="'Arial-BoldMT'" font-size="18"> A Short Story about </text>
<text transform="matrix(1 0 0 1 272.7273 97.36)" fill="#FFFFFF" font-family="'Arial-BoldMT'" font-size="18">The S. F. Square Academy</text>
<text transform="matrix(1 0 0 1 272.7273 97.36)" fill="none" stroke="#FFFFFF" font-family="'Arial-BoldMT'" font-size="18">The S. F. Square Academy</text>
</svg>
