<svg version="1.1" id="Layer_1" xmlns="http://www.w3.org/2000/svg" xmlns:xlink="http://www.w3.org/1999/xlink" x="0px" y="0px"
	 viewBox="0 0 299.4 307.8" style="enable-background:new 0 0 299.4 307.8;" xml:space="preserve">
<style type="text/css">
	.st0{fill:none;stroke:#00579B;stroke-width:2.5;stroke-linecap:round;stroke-linejoin:round;}
	.st1{fill:none;stroke:#44B3E6;stroke-width:2.5;stroke-linejoin:round;}
	.st2{fill:none;stroke:#00579B;stroke-width:2.5;stroke-linejoin:round;}
	.st3{fill:none;stroke:#44B3E6;stroke-width:2.5;stroke-linecap:round;stroke-linejoin:round;}
</style>


<defs>
	
	<style>
	
	.st0, .st1, .st2, .st3 {
		stroke-dasharray: 400;
		stroke-offset: 0;
		-webkit-animation: dash 1.75s linear forwards;
		-o-animation: dash 1.75s linear forwards;
		-moz-animation: dash 1.75s linear forwards;
		animation: dash 1.75s linear forwards;
		-webkit-animation-iteration-count: infinite; /* Safari 4.0 - 8.0 */
		animation-iteration-count: infinite;
		-webkit-animation-direction: alternate; /* Safari 4.0 - 8.0 */
    	animation-direction: alternate;
	}

	
	@-webkit-keyframes dash {
		from {
			stroke-dashoffset: 400;
		}
		to {
			stroke-dashoffset: 0;
		}
	}
	
	</style>
	
</defs>

<g id="Layer_22">
	<title>Artboard 1</title>
</g>
<g id="Layer_21">
	<path class="st0" d="M25.5,295.9c0,0,62.1-22.7,62.1-82c0-7.8-1.2-15.6-3.6-23.1"/>
</g>
<g id="Layer_20">
	<path class="st1" d="M44.6,162.4c23,0,41.7,18.7,41.7,41.7s-18.7,41.7-41.7,41.7"/>
</g>
<g id="Layer_19">
	<line class="st1" x1="185.3" y1="162.5" x2="185.3" y2="295.9"/>
</g>
<g id="Layer_18">
	<line class="st2" x1="185.3" y1="261" x2="185.3" y2="295.9"/>
</g>
<g id="Layer_17">
	<line class="st1" x1="202" y1="261" x2="104.6" y2="261"/>
</g>
<g id="Layer_16">
	<line class="st0" x1="104.6" y1="261" x2="185.3" y2="162.5"/>
</g>
<g id="Layer_15">
	<line class="st1" x1="286.8" y1="159.9" x2="238.3" y2="240.4"/>
</g>
<g id="Layer_14">
	<path class="st0" d="M231.1,159.4c0.2-8.3,7.1-14.9,15.5-14.7c8,0.2,14.5,6.7,14.7,14.7"/>
</g>
<g id="Layer_13">
	<path class="st3" d="M261.3,159.4c0.2,8.3-6.4,15.3-14.7,15.5s-15.3-6.4-15.5-14.7c0-0.3,0-0.5,0-0.8"/>
</g>
<g id="Layer_12">
	<path class="st3" d="M281.5,240.4c-8.3,0-15.1-6.8-15.1-15.1s6.8-15.1,15.1-15.1"/>
</g>
<g id="Layer_11">
	<path class="st0" d="M281.5,210.2c8.3-0.2,15.3,6.4,15.5,14.7s-6.4,15.3-14.7,15.5c-0.3,0-0.5,0-0.8,0"/>
</g>
<g id="Layer_10">
	<path class="st0" d="M44.6,245.9c-23,0.4-42-18-42.4-41.1s18-42,41.1-42.4c0.4,0,0.9,0,1.3,0"/>
</g>
<g id="Layer_9">
	<line class="st0" x1="119.9" y1="105.4" x2="119.9" y2="115.6"/>
</g>
<g id="Layer_8">
	<path class="st0" d="M105.8,49.9v15.6c0,2,1.1,3.8,2.9,4.7l33.3,16c1.8,0.9,3.9,0.9,5.7,0l33.3-16c1.8-0.9,3-2.7,2.9-4.7V49.9"/>
</g>
<g id="Layer_7">
	<polyline class="st1" points="92.1,37.4 92.1,43.3 144.9,68.7 197.8,43.3 197.8,37.4 	"/>
</g>
<g id="Layer_6">
	<polygon class="st0" points="144.9,62.8 92.1,37.4 144.9,11.9 197.8,37.4 	"/>
</g>
<g id="Layer_5">
	<polyline class="st0" points="141.5,39.5 119.9,49.9 119.9,90.7 	"/>
</g>
<g id="Layer_4">
	<circle class="st1" cx="119.9" cy="94.2" r="3.5"/>
</g>
<g id="Layer_3">
	<path class="st1" d="M118.6,97.8h2.6c1.8,0,3.3,1.5,3.3,3.3v14.5l0,0h-9.2l0,0v-14.5C115.3,99.2,116.7,97.8,118.6,97.8L118.6,97.8z
		"/>
</g>
<g id="Layer_2">
	<ellipse class="st1" cx="144.6" cy="37.7" rx="4.2" ry="2.7"/>
</g>
</svg>
