<svg version="1.1" id="Layer_1" xmlns="http://www.w3.org/2000/svg" xmlns:xlink="http://www.w3.org/1999/xlink" x="0px" y="0px"
	 viewBox="0 0 452.4 521.1" style="enable-background:new 0 0 452.4 521.1;" xml:space="preserve">
<style type="text/css">
	.st0{fill:#44B3E6;}
	.st1{fill:none;stroke:#00579B;stroke-width:2;stroke-linecap:round;stroke-linejoin:round;}
	.st2{fill:none;stroke:#FFFFFF;stroke-width:2;stroke-linejoin:round;}
	.st3{fill:none;stroke:#1B87C9;stroke-width:2;stroke-linecap:round;stroke-linejoin:round;}
	.st4{fill:none;stroke:#1B87C9;stroke-width:2;stroke-miterlimit:10;}
	.st5{fill:none;stroke:#00579B;stroke-width:2;stroke-linejoin:round;}
	.st6{fill:none;stroke:#1B87C9;stroke-width:2;stroke-linejoin:round;}
</style>

<defs>
	
	<style>
	
	#sin {
		stroke-dasharray: 800;
		stroke-offset: 0;
		-webkit-animation: dash 2s linear forwards;
		-o-animation: dash 2s linear forwards;
		-moz-animation: dash 2s linear forwards;
		animation: dash 2s linear forwards;
		-webkit-animation-iteration-count: infinite; /* Safari 4.0 - 8.0 */
		animation-iteration-count: infinite;
		-webkit-animation-direction: alternate; /* Safari 4.0 - 8.0 */
    	animation-direction: alternate;
	}

	
	@-webkit-keyframes dash {
		from {
			stroke-dashoffset: 800;
		}
		to {
			stroke-dashoffset: 0;
		}
	}
	
	</style>
	

	
</defs>


<circle class="st0" cx="226.2" cy="295.1" r="220.5"/>
<rect x="26.2" y="168.2" transform="matrix(0.9679 -0.2512 0.2512 0.9679 -43.6449 21.7889)" class="st1" width="74.7" height="27.3"/>
<polyline class="st2" points="92.9,165.7 97.1,181.7 34.9,197.8 "/>
<rect x="35.3" y="211.5" transform="matrix(0.9679 -0.2512 0.2512 0.9679 -54.0059 18.2419)" class="st3" width="18.2" height="18.2"/>
<rect x="62.6" y="204.5" transform="matrix(0.9679 -0.2512 0.2512 0.9679 -51.3504 24.8764)" class="st3" width="18.2" height="18.2"/>
<rect x="42.4" y="238.8" transform="matrix(0.9679 -0.2512 0.2512 0.9679 -60.6401 20.8999)" class="st3" width="18.2" height="18.2"/>
<rect x="69.7" y="231.8" transform="matrix(0.9679 -0.2512 0.2512 0.9679 -57.9849 27.5319)" class="st3" width="18.2" height="18.2"/>
<rect x="100.6" y="224.2" transform="matrix(0.9679 -0.2512 0.2512 0.9679 -58.6437 35.495)" class="st1" width="18.2" height="46.4"/>
<rect x="49.5" y="266.2" transform="matrix(0.9679 -0.2512 0.2512 0.9679 -67.277 23.5564)" class="st3" width="18.2" height="18.2"/>
<rect x="76.8" y="259.1" transform="matrix(0.9679 -0.2512 0.2512 0.9679 -64.6166 30.1896)" class="st3" width="18.2" height="18.2"/>
<rect x="89.4" y="197.3" transform="matrix(0.9684 -0.2496 0.2496 0.9684 -48.3954 31.1207)" class="st3" width="18.3" height="18.3"/>
<polyline class="st1" points="142.6,278.4 41.4,304.6 5.7,167.2 "/>
<polyline class="st3" points="5.7,167.2 107,140.9 142.6,278.4 "/>
<line class="st2" x1="103.8" y1="147.8" x2="136.3" y2="273.2"/>
<circle class="st1" cx="166.3" cy="165.7" r="17.4"/>
<circle class="st1" cx="166.3" cy="165.7" r="17.4"/>
<circle class="st1" cx="110.9" cy="105.8" r="17.4"/>
<circle class="st1" cx="178" cy="25.6" r="17.4"/>
<circle class="st1" cx="178" cy="25.6" r="17.4"/>
<line class="st2" x1="166.3" y1="158.3" x2="166.3" y2="173.1"/>
<line class="st2" x1="173.7" y1="165.7" x2="159" y2="165.7"/>
<line class="st4" x1="185.4" y1="25.6" x2="170.6" y2="25.6"/>
<line class="st4" x1="119.3" y1="105.8" x2="102.6" y2="105.8"/>
<circle class="st1" cx="110.9" cy="112.9" r="2.1"/>
<circle class="st1" cx="110.9" cy="98.7" r="2.1"/>
<line class="st3" x1="248.3" y1="49" x2="349.6" y2="201.5"/>
<polyline class="st1" points="349.6,201.5 248.3,201.5 248.3,49 "/>
<polyline class="st2" points="318.2,166.8 336.6,194.5 268.7,194.5 "/>
<line class="st1" x1="268.7" y1="115.3" x2="311.2" y2="179.2"/>
<polyline class="st3" points="311.2,179.2 268.7,179.2 268.7,115.3 "/>
<line class="st1" x1="248.3" y1="71.1" x2="255.6" y2="71.1"/>
<line class="st1" x1="248.3" y1="81.1" x2="255.6" y2="81.1"/>
<line class="st1" x1="248.3" y1="91.1" x2="255.6" y2="91.1"/>
<line class="st1" x1="248.3" y1="101.1" x2="255.6" y2="101.1"/>
<line class="st1" x1="248.3" y1="111.1" x2="255.6" y2="111.1"/>
<line class="st1" x1="248.3" y1="121.1" x2="255.6" y2="121.1"/>
<line class="st1" x1="248.3" y1="131.1" x2="255.6" y2="131.1"/>
<line class="st1" x1="248.3" y1="141.1" x2="255.6" y2="141.1"/>
<line class="st1" x1="248.3" y1="161.1" x2="255.6" y2="161.1"/>
<line class="st1" x1="248.3" y1="181.1" x2="255.6" y2="181.1"/>
<line class="st1" x1="248.3" y1="171.1" x2="255.6" y2="171.1"/>
<line class="st1" x1="248.3" y1="191.1" x2="255.6" y2="191.1"/>
<line class="st1" x1="248.3" y1="151.1" x2="255.6" y2="151.1"/>
<line class="st5" x1="305.2" y1="228.6" x2="305.2" y2="235.9"/>
<line class="st5" x1="295.2" y1="228.6" x2="295.2" y2="235.9"/>
<line class="st5" x1="285.2" y1="228.6" x2="285.2" y2="235.9"/>
<line class="st5" x1="275.2" y1="228.6" x2="275.2" y2="235.9"/>
<line class="st5" x1="265.2" y1="228.6" x2="265.2" y2="235.9"/>
<line class="st5" x1="255.2" y1="228.6" x2="255.2" y2="235.9"/>
<line class="st5" x1="245.2" y1="228.6" x2="245.2" y2="235.9"/>
<line class="st5" x1="235.2" y1="228.6" x2="235.2" y2="235.9"/>
<line class="st5" x1="215.2" y1="228.6" x2="215.2" y2="235.9"/>
<line class="st5" x1="195.2" y1="228.6" x2="195.2" y2="235.9"/>
<line class="st5" x1="205.2" y1="228.6" x2="205.2" y2="235.9"/>
<line class="st5" x1="185.2" y1="228.6" x2="185.2" y2="235.9"/>
<line class="st5" x1="225.2" y1="228.6" x2="225.2" y2="235.9"/>
<polyline class="st1" points="311.2,247.9 178,247.9 178,229.1 "/>
<line class="st2" x1="305.2" y1="242.9" x2="184" y2="242.9"/>
<polyline class="st3" points="178,229.1 311.2,229.1 311.2,247.9 "/>
<line class="st6" x1="390.6" y1="236.1" x2="394.8" y2="221.3"/>
<ellipse transform="matrix(0.2773 -0.9608 0.9608 0.2773 42.4441 550.7715)" class="st5" cx="387.3" cy="247.2" rx="11.5" ry="11.5"/>
<polyline class="st5" points="340.6,307 387.6,246.3 395.1,322.7 "/>
<line class="st2" x1="394.2" y1="313.2" x2="395.1" y2="322.7"/>
<line class="st6" x1="352.9" y1="279.7" x2="399.6" y2="293.2"/>
<line class="st6" x1="378" y1="279.6" x2="374.3" y2="292.6"/>
<line class="st6" x1="204.1" y1="270.6" x2="204.1" y2="484.9"/>
<line class="st5" x1="341.2" y1="377.8" x2="66.9" y2="377.8"/>
<line class="st6" x1="208.4" y1="367" x2="199.8" y2="367"/>
<line class="st6" x1="208.4" y1="345.4" x2="199.8" y2="345.4"/>
<line class="st6" x1="208.4" y1="323.8" x2="199.8" y2="323.8"/>
<line class="st6" x1="208.4" y1="302.2" x2="199.8" y2="302.2"/>
<line class="st6" x1="208.4" y1="280.6" x2="199.8" y2="280.6"/>
<line class="st6" x1="208.4" y1="474.9" x2="199.8" y2="474.9"/>
<line class="st6" x1="208.4" y1="453.3" x2="199.8" y2="453.3"/>
<line class="st6" x1="208.4" y1="431.8" x2="199.8" y2="431.8"/>
<line class="st6" x1="208.4" y1="410.2" x2="199.8" y2="410.2"/>
<line class="st6" x1="208.4" y1="388.6" x2="199.8" y2="388.6"/>
<line class="st5" x1="214.9" y1="382.1" x2="214.9" y2="373.5"/>
<line class="st5" x1="236.4" y1="382.1" x2="236.4" y2="373.5"/>
<line class="st5" x1="258" y1="382.1" x2="258" y2="373.5"/>
<line class="st5" x1="279.6" y1="382.1" x2="279.6" y2="373.5"/>
<line class="st5" x1="301.2" y1="382.1" x2="301.2" y2="373.5"/>
<line class="st5" x1="322.8" y1="382.1" x2="322.8" y2="373.5"/>
<line class="st5" x1="106.9" y1="382.1" x2="106.9" y2="373.5"/>
<line class="st5" x1="128.5" y1="382.1" x2="128.5" y2="373.5"/>
<line class="st5" x1="85.3" y1="382.1" x2="85.3" y2="373.5"/>
<line class="st5" x1="150.1" y1="382.1" x2="150.1" y2="373.5"/>
<line class="st5" x1="171.7" y1="382.1" x2="171.7" y2="373.5"/>
<line class="st5" x1="193.3" y1="382.1" x2="193.3" y2="373.5"/>
<path class="st2" id="sin" d="M301.2,355.6c0,0-13.8-53.3-43.2-53.3c-49.7,0-59.8,150-108.8,150c-27.4,0-42.3-52.9-42.3-52.9"/>
<path class="st3" d="M370.5,484.4l-11.6-3.6l0,0l5.4-17.4l0,0l11.6,3.6c1.8,0.6,2.9,2.5,2.3,4.3l-3.3,10.8
	C374.2,483.9,372.3,485,370.5,484.4z"/>
<polyline class="st3" points="289.3,459.4 275.5,445.5 294.7,441.9 "/>
<rect x="317.5" y="425.1" transform="matrix(0.2945 -0.9556 0.9556 0.2945 -210.5303 637.83)" class="st1" width="18.4" height="72.8"/>
<rect x="317.5" y="425.1" transform="matrix(0.2945 -0.9556 0.9556 0.2945 -210.5303 637.83)" class="st1" width="18.4" height="72.8"/>
<line class="st2" x1="354" y1="469.9" x2="299.6" y2="453.1"/>
</svg>
