<?xml version="1.0" encoding="utf-8"?>
<!-- Generator: Adobe Illustrator 20.1.0, SVG Export Plug-In . SVG Version: 6.00 Build 0)  -->
<!DOCTYPE svg PUBLIC "-//W3C//DTD SVG 1.1//EN" "http://www.w3.org/Graphics/SVG/1.1/DTD/svg11.dtd">
<svg version="1.1" id="Layer_1" xmlns="http://www.w3.org/2000/svg" xmlns:xlink="http://www.w3.org/1999/xlink" x="0px" y="0px"
	 viewBox="0 0 281.4 287.3" style="enable-background:new 0 0 281.4 287.3;" xml:space="preserve">
<style type="text/css">
	.st0{fill:#00579B;}
	.st1{fill:none;stroke:#44B3E6;stroke-width:2;stroke-linejoin:round;stroke-miterlimit:10;}
	.st2{fill:none;stroke:#1B87C9;stroke-width:2;stroke-linejoin:round;stroke-miterlimit:10;}
	.st3{fill:none;stroke:#FFFFFF;stroke-width:2;stroke-linejoin:round;stroke-miterlimit:10;}
	.st4{fill:none;stroke:#1B87C9;stroke-width:2;stroke-linecap:round;stroke-linejoin:round;stroke-miterlimit:10;}
	.st5{fill:none;stroke:#FFFFFF;stroke-width:2;stroke-miterlimit:10;}
</style>
<title>Artboard 1</title>
<g>
	<circle class="st0" cx="140.7" cy="143.6" r="136.7"/>
	<circle class="st1" cx="49.4" cy="176.6" r="17.4"/>
	<line class="st2" x1="46.7" y1="93.4" x2="144.5" y2="93.4"/>
	<line class="st2" x1="46.7" y1="72.8" x2="144.5" y2="72.8"/>
	<line class="st2" x1="46.7" y1="52.3" x2="144.5" y2="52.3"/>
	<line class="st2" x1="46.7" y1="31.7" x2="144.5" y2="31.7"/>
	
		<rect x="37.3" y="18.2" transform="matrix(-1 7.579125e-11 -7.579125e-11 -1 83.9709 132.0904)" class="st1" width="9.4" height="95.8"/>
	
		<rect x="144.5" y="18.2" transform="matrix(-1 7.579125e-11 -7.579125e-11 -1 298.3922 132.0904)" class="st1" width="9.4" height="95.8"/>
	<polyline class="st1" points="164.2,132.7 27,132.7 27,113.9 	"/>
	<polyline class="st3" points="158.3,126.7 32,126.7 32,118.4 	"/>
	<polyline class="st4" points="27,113.9 164.2,113.9 164.2,132.7 	"/>
	<circle class="st1" cx="65.6" cy="31.4" r="5.3"/>
	<circle class="st2" cx="95.6" cy="31.4" r="5.3"/>
	<circle class="st1" cx="112" cy="31.4" r="5.3"/>
	<circle class="st2" cx="133.6" cy="31.4" r="5.3"/>
	<circle class="st1" cx="67.8" cy="52" r="5.3"/>
	<circle class="st1" cx="82.2" cy="52" r="5.3"/>
	<circle class="st3" cx="100.7" cy="52" r="5.3"/>
	<circle class="st1" cx="126.4" cy="52" r="5.3"/>
	<circle class="st3" cx="61.7" cy="72.5" r="5.3"/>
	<circle class="st2" cx="79.1" cy="72.5" r="5.3"/>
	<circle class="st1" cx="112" cy="72.5" r="5.3"/>
	<circle class="st1" cx="126.4" cy="72.5" r="5.3"/>
	<circle class="st2" cx="69.9" cy="93.1" r="5.3"/>
	<circle class="st2" cx="88.4" cy="93.1" r="5.3"/>
	<circle class="st3" cx="102.8" cy="93.1" r="5.3"/>
	<circle class="st1" cx="131.6" cy="93.1" r="5.3"/>
	<line class="st3" x1="40.5" y1="172.2" x2="58.3" y2="172.2"/>
	<line class="st3" x1="45.8" y1="172.1" x2="45.8" y2="184.4"/>
	<line class="st3" x1="53.1" y1="172.1" x2="53.1" y2="184.4"/>
	<circle class="st1" cx="177.4" cy="236.3" r="17.4"/>
	<g>
		<polyline class="st4" points="226.9,112.9 252.9,154.3 241,153.3 236.8,164.4 210.5,122.5 		"/>
		<polyline class="st4" points="196.2,119.4 190.9,168.6 201.1,162.5 209.8,170.7 214.3,129 		"/>
		<line class="st3" x1="200" y1="128.5" x2="196.9" y2="157.4"/>
		
			<ellipse transform="matrix(0.9744 -0.2249 0.2249 0.9744 -16.0793 48.8968)" class="st4" cx="206.6" cy="95" rx="20.3" ry="20.3"/>
		<path class="st3" d="M203.2,80.3c8.1-1.9,16.2,3.2,18.1,11.3"/>
		<polygon class="st1" points="235.3,100.5 231,104 232.1,109.5 226.8,111.5 226,117 220.5,117.2 217.9,122.1 212.6,120.5 
			208.5,124.4 204,121.1 199,123.4 195.8,118.8 190.2,119.4 188.7,114 183.3,112.8 183.6,107.2 178.8,104.2 180.9,99.1 177.4,94.7 
			181.1,90.5 179.1,85.3 184,82.5 183.9,76.9 189.3,75.8 191,70.5 196.6,71.2 199.9,66.8 204.9,69.3 209.5,66.1 213.4,70.1 
			218.8,68.7 221.2,73.7 226.7,74 227.4,79.6 232.5,81.7 231.3,87.2 235.5,90.9 232.6,95.6 		"/>
		<g>
			<polyline class="st1" points="200.2,92.1 205.2,86.1 209.2,103.6 			"/>
			<line class="st1" x1="204" y1="104.8" x2="214" y2="102.5"/>
		</g>
	</g>
	<g>
		<polyline class="st1" points="168.3,178.4 168.3,186.8 111.4,186.8 111.4,246.6 104.2,246.6 81.6,223.9 87.5,218 		"/>
	</g>
	<polyline class="st4" points="87.5,218 103,233.5 103,178.4 168.3,178.4 	"/>
	<polyline class="st5" points="183,231.3 183,227.8 171.8,227.8 177.4,236.5 171.8,245.3 183,245.3 183,241.8 	"/>
</g>
</svg>
